<svg id="visual" viewBox="0 0 960 540" width="960" height="540" xmlns="http://www.w3.org/2000/svg" xmlns:xlink="http://www.w3.org/1999/xlink" version="1.1"><path d="M0 393L22.8 394.5C45.7 396 91.3 399 137 393.7C182.7 388.3 228.3 374.7 274 384.7C319.7 394.7 365.3 428.3 411.2 432.2C457 436 503 410 548.8 405.8C594.7 401.7 640.3 419.3 686 418.5C731.7 417.7 777.3 398.3 823 392.2C868.7 386 914.3 393 937.2 396.5L960 400L960 541L937.2 541C914.3 541 868.7 541 823 541C777.3 541 731.7 541 686 541C640.3 541 594.7 541 548.8 541C503 541 457 541 411.2 541C365.3 541 319.7 541 274 541C228.3 541 182.7 541 137 541C91.3 541 45.7 541 22.8 541L0 541Z" fill="#6600FF" stroke-linecap="round" stroke-linejoin="miter"></path></svg>