<svg id="visual" viewBox="0 0 900 600" width="900" height="600" xmlns="http://www.w3.org/2000/svg" xmlns:xlink="http://www.w3.org/1999/xlink" version="1.1"><rect x="0" y="0" width="900" height="600" fill="#ABB1E4"></rect><path d="M0 446L21.5 446.2C43 446.3 86 446.7 128.8 437.8C171.7 429 214.3 411 257.2 415.7C300 420.3 343 447.7 385.8 465.8C428.7 484 471.3 493 514.2 492.5C557 492 600 482 642.8 468.8C685.7 455.7 728.3 439.3 771.2 434.2C814 429 857 435 878.5 438L900 441L900 601L878.5 601C857 601 814 601 771.2 601C728.3 601 685.7 601 642.8 601C600 601 557 601 514.2 601C471.3 601 428.7 601 385.8 601C343 601 300 601 257.2 601C214.3 601 171.7 601 128.8 601C86 601 43 601 21.5 601L0 601Z" fill="#38136f" stroke-linecap="round" stroke-linejoin="miter"></path></svg>